# xmcd CD database file
#
# Track frame offsets:
#	150
#	22125
#	43183
#	64022
#
# Disc length: 1125 seconds
#
# Revision: 0
# Processed by: cddbd v1.5.1PL0 Copyright (c) Steve Scherf et al.
# Submitted via: CDex 1.51
#
DISCID=33046304
DTITLE=LAST ALLIANCE - Re:frain
DYEAR=2005
DGENRE=Punk Rock
TTITLE0=COLOR DESERT
TTITLE1=流星涙
TTITLE2=astrogate-0
TTITLE3=KONOYUBI TOMARE
EXTD=YEAR: 2005
EXTT0=
EXTT1=
EXTT2=
EXTT3=
PLAYORDER=
